<svg width="165" height="290" viewBox="0 0 165 290" fill="none" xmlns="http://www.w3.org/2000/svg">
<path fill-rule="evenodd" clip-rule="evenodd" d="M-3 0H165V191H-3V0Z" fill="#4AF6CD"/>
<path d="M57.22 155.36C57.22 152.2 57.68 149.42 58.6 147.02C59.52 144.58 60.9 142.4 62.74 140.48L68.62 145.46C66.34 148.34 65.2 151.36 65.2 154.52C65.2 156.16 65.52 157.42 66.16 158.3C66.76 159.14 67.62 159.56 68.74 159.56C69.54 159.56 70.2 159.34 70.72 158.9C71.24 158.46 71.74 157.72 72.22 156.68C72.7 155.64 73.3 154 74.02 151.76C75.38 147.48 77.1 144.36 79.18 142.4C81.22 140.4 84.06 139.4 87.7 139.4C90.34 139.4 92.68 140.08 94.72 141.44C96.72 142.8 98.28 144.78 99.4 147.38C100.52 149.94 101.08 152.96 101.08 156.44C101.08 163.08 99.06 168.5 95.02 172.7L88.96 167.24C91.68 163.92 93.04 160.46 93.04 156.86C93.04 154.98 92.64 153.52 91.84 152.48C91 151.44 89.9 150.92 88.54 150.92C87.58 150.92 86.8 151.12 86.2 151.52C85.56 151.92 85 152.64 84.52 153.68C84 154.68 83.44 156.16 82.84 158.12C81.36 162.84 79.58 166.16 77.5 168.08C75.42 170 72.8 170.96 69.64 170.96C67.16 170.96 64.98 170.3 63.1 168.98C61.22 167.62 59.78 165.76 58.78 163.4C57.74 161 57.22 158.32 57.22 155.36ZM86.02 101.955C88.9 101.955 91.48 102.595 93.76 103.875C96.04 105.115 97.84 106.995 99.16 109.515C100.44 112.035 101.08 115.115 101.08 118.755C101.08 124.275 99.74 128.455 97.06 131.295C94.34 134.135 90.66 135.555 86.02 135.555H58.3V124.455H85.66C88.18 124.455 90.04 124.015 91.24 123.135C92.4 122.215 92.98 120.755 92.98 118.755C92.98 116.755 92.38 115.315 91.18 114.435C89.98 113.555 88.14 113.115 85.66 113.115H58.3V101.955H86.02ZM84.64 81.9477V85.0077H100V96.1077H58.3V81.6477C58.3 75.7677 59.36 71.3877 61.48 68.5077C63.6 65.5877 66.86 64.1277 71.26 64.1277C73.9 64.1277 76.1 64.7477 77.86 65.9877C79.62 67.1877 81.2 69.1277 82.6 71.8077L100 61.4277V73.7877L84.64 81.9477ZM77.08 85.0077V81.2877C77.08 77.4477 75.14 75.5277 71.26 75.5277C69.46 75.5277 68.14 76.0677 67.3 77.1477C66.46 78.1877 66.04 79.7677 66.04 81.8877V85.0077H77.08ZM100 58.9006H58.3V33.2806L66.16 34.4206V47.8006H76.18V36.0406H84.04V47.8006H100V58.9006Z" fill="white"/>
<path d="M57.22 267.92C57.22 262.36 58.98 257.58 62.5 253.58L68.2 259.04C67.12 260.56 66.34 261.94 65.86 263.18C65.34 264.38 65.08 265.76 65.08 267.32C65.08 270.32 66.24 272.68 68.56 274.4C70.88 276.08 74.42 276.92 79.18 276.92C82.66 276.92 85.42 276.64 87.46 276.08C89.46 275.52 90.9 274.68 91.78 273.56C92.66 272.4 93.1 270.92 93.1 269.12C93.1 267.32 92.72 265.68 91.96 264.2H83.38V268.94L75.76 270.02V253.46H96.52C97.96 255.62 99.08 258.06 99.88 260.78C100.68 263.5 101.08 266.18 101.08 268.82C101.08 281.86 93.76 288.38 79.12 288.38C74.56 288.38 70.64 287.5 67.36 285.74C64.04 283.94 61.52 281.5 59.8 278.42C58.08 275.34 57.22 271.84 57.22 267.92ZM57.22 230.335C57.22 224.295 59.14 219.595 62.98 216.235C66.82 212.875 72.2 211.195 79.12 211.195C83.64 211.195 87.56 211.955 90.88 213.475C94.16 214.955 96.68 217.135 98.44 220.015C100.2 222.895 101.08 226.335 101.08 230.335C101.08 236.375 99.16 241.075 95.32 244.435C91.48 247.755 86.08 249.415 79.12 249.415C74.6 249.415 70.7 248.675 67.42 247.195C64.14 245.675 61.62 243.495 59.86 240.655C58.1 237.775 57.22 234.335 57.22 230.335ZM65.2 230.335C65.2 232.935 66.28 234.855 68.44 236.095C70.6 237.295 74.16 237.895 79.12 237.895C84.08 237.895 87.66 237.275 89.86 236.035C92.02 234.795 93.1 232.895 93.1 230.335C93.1 227.695 92.02 225.775 89.86 224.575C87.7 223.375 84.12 222.775 79.12 222.775C74.16 222.775 70.6 223.375 68.44 224.575C66.28 225.775 65.2 227.695 65.2 230.335Z" fill="white"/>
<rect x="80" y="201" width="20" height="1" transform="rotate(-90 80 201)" fill="white"/>
</svg>
