<svg width="1004" height="551" viewBox="0 0 1004 551" fill="none" xmlns="http://www.w3.org/2000/svg">
<g opacity="0.29827">
<path d="M1008.08 218.448L443.182 -301.858V-692.19L28.1096 -715C24.9043 -707.456 4.36709 -685.714 7.57176 -673.596C11.43 -659.102 30.8387 -663.735 36.4776 -654.409C43.0661 -643.42 31.7291 -598.749 28.3457 -585.86C21.8759 -561.445 7.09676 -541.665 2.82235 -517.25C-4.35982 -476.263 10.1824 -479.53 37.7242 -453.927C84.141 -410.742 46.9244 -365.952 58.6176 -315.223C68.1146 -273.878 109.605 -252.554 124.8 -211.211C136.553 -179.37 152.697 -171.233 177.746 -147.947C177.153 -162.084 164.51 -203.785 188.253 -200.102C211.817 -196.478 202.736 -161.669 207.247 -147.115C211.045 -134.997 237.933 -110.761 215.616 -99.593C208.196 -95.91 187.066 -110.582 178.577 -114.503C184.572 -95.7908 180.774 -76.367 190.271 -58.4867C201.608 -37.162 213.835 -45.3588 228.853 -33.7754C244.344 -21.8355 242.683 -8.11367 235.797 9.94458C228.615 28.7753 221.196 25.8648 232.592 48.5566C240.843 64.9512 254.85 85.7421 266.9 98.2164C273.904 105.463 281.502 107.127 288.506 116.393C294.323 124.115 292.067 134.214 299.012 141.164C310.883 153.104 331.006 153.282 340.384 168.904C350.831 186.309 338.96 199.437 369.706 197.833C371.309 232.643 377.897 264.185 377.541 298.994C394.695 305.825 422.414 297.687 440.399 294.063C458.266 318.18 481.355 301.429 501.774 314.558C510.678 320.26 508.837 334.517 514.239 339.506C525.339 349.723 533.529 343.308 547.301 346.872C557.51 349.486 565.404 356.97 575.138 359.703C584.338 362.257 599.475 356.258 606.301 364.396C614.492 374.138 600.78 391.958 613.127 399.799C623.395 406.333 638.115 390.77 648.088 393.027C659.721 395.7 693.079 426.174 701.271 436.212C710.59 447.677 719.969 469.062 725.25 483.793C733.501 506.841 732.373 518.127 749.408 534.998C760.27 545.75 749.942 546.522 767.63 549.67C779.204 551.749 794.518 543.374 806.212 542.067C830.549 539.394 855.122 544.027 879.102 539.453C901.421 535.176 922.729 528.166 945.64 524.899C965.465 522.048 1000.37 524.246 1017.94 514.801C1036.99 504.643 1038.71 481.654 1011.17 485.932C1008.97 471.26 1018.77 451.003 1007.85 440.847C1023.04 420.056 1028.56 405.384 1030.93 379.959C1032 368.792 1032.48 356.436 1038 347.05C1043.4 337.783 1058.59 332.259 1061.56 324.299C1066.13 311.943 1058.83 306.419 1053.25 299.528C1049.69 295.073 1039.54 297.212 1036.63 293.291C1031.23 286.103 1036.57 278.678 1033.6 271.431C1024.94 250.462 1014.61 242.205 1008.08 218.444C1008.26 222.424 1008.44 226.463 1008.2 230.384" stroke="white" stroke-width="2" stroke-linecap="round" stroke-linejoin="round"/>
</g>
<path d="M729.114 138.939C720.546 162.321 740.614 170.526 756.675 185.807C761.434 190.336 761.888 197.817 756.879 202.342C746.107 212.074 705.264 197.917 707.854 210.745C710.53 223.994 745.061 242.531 746.618 243.799C760.284 254.932 764.735 283.174 757.208 298.658C751.852 309.676 716.342 305.962 705.172 302.293C632.024 278.266 664.985 281.131 582.817 273.67C576.527 273.099 569.935 272.806 563.894 274.65C557.671 276.549 557.869 284.339 559.957 288.55C566.876 302.506 597.849 326.178 589.514 344.523C586.956 350.152 580.963 353.707 578.264 359.27C576.151 363.627 576.385 368.772 575.445 373.523" stroke="white" stroke-width="2"/>
<path fill-rule="evenodd" clip-rule="evenodd" d="M573.5 381C577.09 381 580 378.09 580 374.5C580 370.91 577.09 368 573.5 368C569.91 368 567 370.91 567 374.5C567 378.09 569.91 381 573.5 381Z" fill="#4AF6CD"/>
<path fill-rule="evenodd" clip-rule="evenodd" d="M661 418C662.657 418 664 416.657 664 415C664 413.343 662.657 412 661 412C659.343 412 658 413.343 658 415C658 416.657 659.343 418 661 418Z" fill="#4AF6CD"/>
<path fill-rule="evenodd" clip-rule="evenodd" d="M725 526C726.657 526 728 524.657 728 523C728 521.343 726.657 520 725 520C723.343 520 722 521.343 722 523C722 524.657 723.343 526 725 526Z" fill="#4AF6CD"/>
<path fill-rule="evenodd" clip-rule="evenodd" d="M365 283C366.657 283 368 281.657 368 280C368 278.343 366.657 277 365 277C363.343 277 362 278.343 362 280C362 281.657 363.343 283 365 283Z" fill="#4AF6CD"/>
<path fill-rule="evenodd" clip-rule="evenodd" d="M729.5 146C733.09 146 736 143.09 736 139.5C736 135.91 733.09 133 729.5 133C725.91 133 723 135.91 723 139.5C723 143.09 725.91 146 729.5 146Z" fill="#4AF6CD"/>
<path d="M398.41 365.976L396.17 377H394.218L392.186 367.768L390.138 377H388.234L385.994 365.976H387.482L389.258 375.672L391.386 365.976H393.002L395.178 375.672L397.018 365.976H398.41ZM406.544 372.536C406.544 372.781 406.534 373.032 406.512 373.288H401.136C401.2 374.216 401.435 374.899 401.84 375.336C402.246 375.773 402.768 375.992 403.408 375.992C403.814 375.992 404.187 375.933 404.528 375.816C404.87 375.699 405.227 375.512 405.6 375.256L406.24 376.136C405.344 376.84 404.363 377.192 403.296 377.192C402.123 377.192 401.206 376.808 400.544 376.04C399.894 375.272 399.568 374.216 399.568 372.872C399.568 371.997 399.707 371.224 399.984 370.552C400.272 369.869 400.678 369.336 401.2 368.952C401.734 368.568 402.358 368.376 403.072 368.376C404.192 368.376 405.051 368.744 405.648 369.48C406.246 370.216 406.544 371.235 406.544 372.536ZM405.088 372.104C405.088 371.272 404.923 370.637 404.592 370.2C404.262 369.763 403.766 369.544 403.104 369.544C401.899 369.544 401.243 370.429 401.136 372.2H405.088V372.104ZM411.183 368.376C411.759 368.376 412.276 368.456 412.735 368.616C413.194 368.776 413.631 369.016 414.047 369.336L413.423 370.264C413.039 370.019 412.671 369.837 412.319 369.72C411.978 369.603 411.615 369.544 411.231 369.544C410.751 369.544 410.372 369.645 410.095 369.848C409.818 370.04 409.679 370.307 409.679 370.648C409.679 370.989 409.807 371.256 410.063 371.448C410.33 371.64 410.804 371.827 411.487 372.008C412.426 372.243 413.124 372.563 413.583 372.968C414.052 373.373 414.287 373.928 414.287 374.632C414.287 375.464 413.962 376.099 413.311 376.536C412.671 376.973 411.887 377.192 410.959 377.192C409.679 377.192 408.618 376.824 407.775 376.088L408.559 375.192C409.274 375.736 410.063 376.008 410.927 376.008C411.482 376.008 411.919 375.896 412.239 375.672C412.57 375.437 412.735 375.123 412.735 374.728C412.735 374.44 412.676 374.211 412.559 374.04C412.442 373.859 412.239 373.704 411.951 373.576C411.663 373.437 411.242 373.293 410.687 373.144C409.791 372.909 409.14 372.595 408.735 372.2C408.34 371.805 408.143 371.304 408.143 370.696C408.143 370.259 408.271 369.864 408.527 369.512C408.794 369.149 409.156 368.872 409.615 368.68C410.084 368.477 410.607 368.376 411.183 368.376ZM420.62 376.616C420.065 377 419.436 377.192 418.732 377.192C418.017 377.192 417.457 376.989 417.052 376.584C416.657 376.168 416.46 375.571 416.46 374.792V369.704H414.988V368.568H416.46V366.664L417.932 366.488V368.568H419.932L419.772 369.704H417.932V374.728C417.932 375.165 418.006 375.485 418.156 375.688C418.316 375.88 418.577 375.976 418.94 375.976C419.27 375.976 419.644 375.864 420.06 375.64L420.62 376.616ZM429.179 365.784C429.915 365.784 430.545 365.891 431.067 366.104C431.59 366.307 432.097 366.627 432.587 367.064L431.755 367.992C431.339 367.661 430.929 367.421 430.523 367.272C430.129 367.112 429.702 367.032 429.243 367.032C428.667 367.032 428.193 367.165 427.819 367.432C427.446 367.699 427.259 368.088 427.259 368.6C427.259 368.92 427.323 369.192 427.451 369.416C427.579 369.629 427.814 369.827 428.155 370.008C428.507 370.189 429.014 370.381 429.675 370.584C430.369 370.797 430.945 371.027 431.403 371.272C431.862 371.517 432.23 371.859 432.507 372.296C432.795 372.723 432.939 373.267 432.939 373.928C432.939 374.568 432.779 375.133 432.459 375.624C432.15 376.115 431.697 376.499 431.099 376.776C430.513 377.053 429.814 377.192 429.003 377.192C427.478 377.192 426.23 376.717 425.259 375.768L426.091 374.84C426.539 375.203 426.993 375.48 427.451 375.672C427.91 375.853 428.422 375.944 428.987 375.944C429.67 375.944 430.235 375.779 430.683 375.448C431.131 375.107 431.355 374.616 431.355 373.976C431.355 373.613 431.286 373.315 431.147 373.08C431.009 372.835 430.769 372.616 430.427 372.424C430.097 372.232 429.611 372.04 428.971 371.848C427.841 371.507 427.014 371.096 426.491 370.616C425.969 370.136 425.707 369.485 425.707 368.664C425.707 368.109 425.851 367.613 426.139 367.176C426.438 366.739 426.849 366.397 427.371 366.152C427.905 365.907 428.507 365.784 429.179 365.784ZM439.066 368.376C439.834 368.376 440.431 368.605 440.858 369.064C441.295 369.523 441.514 370.152 441.514 370.952V377H440.042V371.16C440.042 370.563 439.925 370.141 439.69 369.896C439.466 369.651 439.135 369.528 438.698 369.528C438.261 369.528 437.871 369.656 437.53 369.912C437.189 370.168 436.869 370.531 436.57 371V377H435.098V365.192L436.57 365.032V369.736C437.231 368.829 438.063 368.376 439.066 368.376ZM447.641 368.376C448.825 368.376 449.742 368.771 450.393 369.56C451.054 370.349 451.385 371.421 451.385 372.776C451.385 373.651 451.236 374.424 450.937 375.096C450.638 375.757 450.206 376.275 449.641 376.648C449.076 377.011 448.404 377.192 447.625 377.192C446.441 377.192 445.518 376.797 444.857 376.008C444.196 375.219 443.865 374.147 443.865 372.792C443.865 371.917 444.014 371.149 444.313 370.488C444.612 369.816 445.044 369.299 445.609 368.936C446.174 368.563 446.852 368.376 447.641 368.376ZM447.641 369.56C446.18 369.56 445.449 370.637 445.449 372.792C445.449 374.936 446.174 376.008 447.625 376.008C449.076 376.008 449.801 374.931 449.801 372.776C449.801 370.632 449.081 369.56 447.641 369.56ZM457.481 368.376C457.78 368.376 458.057 368.408 458.313 368.472L458.041 369.912C457.785 369.848 457.54 369.816 457.305 369.816C456.782 369.816 456.361 370.008 456.041 370.392C455.721 370.776 455.47 371.373 455.289 372.184V377H453.817V368.568H455.081L455.225 370.28C455.449 369.651 455.753 369.176 456.137 368.856C456.521 368.536 456.969 368.376 457.481 368.376ZM465.872 372.536C465.872 372.781 465.862 373.032 465.84 373.288H460.464C460.528 374.216 460.763 374.899 461.168 375.336C461.574 375.773 462.096 375.992 462.736 375.992C463.142 375.992 463.515 375.933 463.856 375.816C464.198 375.699 464.555 375.512 464.928 375.256L465.568 376.136C464.672 376.84 463.691 377.192 462.624 377.192C461.451 377.192 460.534 376.808 459.872 376.04C459.222 375.272 458.896 374.216 458.896 372.872C458.896 371.997 459.035 371.224 459.312 370.552C459.6 369.869 460.006 369.336 460.528 368.952C461.062 368.568 461.686 368.376 462.4 368.376C463.52 368.376 464.379 368.744 464.976 369.48C465.574 370.216 465.872 371.235 465.872 372.536ZM464.416 372.104C464.416 371.272 464.251 370.637 463.92 370.2C463.59 369.763 463.094 369.544 462.432 369.544C461.227 369.544 460.571 370.429 460.464 372.2H464.416V372.104ZM474.41 364.184V378.568H474.058V364.184H474.41ZM493.237 377H491.765L491.381 372.024C491.221 370.072 491.131 368.573 491.109 367.528L488.725 375.752H487.301L484.789 367.512C484.789 368.845 484.72 370.387 484.581 372.136L484.213 377H482.773L483.685 365.976H485.733L488.053 373.992L490.261 365.976H492.325L493.237 377ZM501.434 375.032C501.434 375.373 501.493 375.629 501.61 375.8C501.728 375.96 501.904 376.083 502.138 376.168L501.802 377.192C501.365 377.139 501.013 377.016 500.746 376.824C500.48 376.632 500.282 376.333 500.154 375.928C499.589 376.771 498.752 377.192 497.642 377.192C496.81 377.192 496.154 376.957 495.674 376.488C495.194 376.019 494.954 375.405 494.954 374.648C494.954 373.752 495.274 373.064 495.914 372.584C496.565 372.104 497.482 371.864 498.666 371.864H499.962V371.24C499.962 370.643 499.818 370.216 499.53 369.96C499.242 369.704 498.8 369.576 498.202 369.576C497.584 369.576 496.826 369.725 495.93 370.024L495.562 368.952C496.608 368.568 497.578 368.376 498.474 368.376C499.466 368.376 500.208 368.621 500.698 369.112C501.189 369.592 501.434 370.28 501.434 371.176V375.032ZM497.978 376.088C498.821 376.088 499.482 375.651 499.962 374.776V372.84H498.858C497.301 372.84 496.522 373.416 496.522 374.568C496.522 375.069 496.645 375.448 496.89 375.704C497.136 375.96 497.498 376.088 497.978 376.088ZM505.981 377.192C505.437 377.192 505.005 377.032 504.685 376.712C504.376 376.381 504.221 375.923 504.221 375.336V365.176L505.693 365V375.304C505.693 375.539 505.731 375.709 505.805 375.816C505.891 375.923 506.029 375.976 506.221 375.976C506.424 375.976 506.605 375.944 506.765 375.88L507.149 376.904C506.797 377.096 506.408 377.192 505.981 377.192ZM510.461 368.568V377H508.989V368.568H510.461ZM509.709 364.52C510.018 364.52 510.269 364.616 510.461 364.808C510.653 365 510.749 365.24 510.749 365.528C510.749 365.816 510.653 366.056 510.461 366.248C510.269 366.429 510.018 366.52 509.709 366.52C509.41 366.52 509.165 366.429 508.973 366.248C508.781 366.056 508.685 365.816 508.685 365.528C508.685 365.24 508.781 365 508.973 364.808C509.165 364.616 509.41 364.52 509.709 364.52ZM517.36 368.376C518.32 368.376 519.083 368.765 519.648 369.544C520.214 370.312 520.496 371.389 520.496 372.776C520.496 373.651 520.363 374.424 520.096 375.096C519.83 375.757 519.446 376.275 518.944 376.648C518.443 377.011 517.856 377.192 517.184 377.192C516.299 377.192 515.552 376.819 514.944 376.072L514.8 377H513.504V365.176L514.976 365V369.624C515.584 368.792 516.379 368.376 517.36 368.376ZM516.832 376.024C517.483 376.024 517.99 375.763 518.352 375.24C518.726 374.707 518.912 373.885 518.912 372.776C518.912 371.635 518.742 370.813 518.4 370.312C518.059 369.8 517.574 369.544 516.944 369.544C516.198 369.544 515.542 369.981 514.976 370.856V374.888C515.2 375.24 515.472 375.517 515.792 375.72C516.123 375.923 516.47 376.024 516.832 376.024ZM529.276 377H528.012L527.9 375.688C527.58 376.211 527.212 376.595 526.796 376.84C526.38 377.075 525.874 377.192 525.276 377.192C524.54 377.192 523.964 376.968 523.548 376.52C523.132 376.072 522.924 375.437 522.924 374.616V368.568H524.396V374.456C524.396 375.032 524.498 375.443 524.7 375.688C524.903 375.923 525.234 376.04 525.692 376.04C526.514 376.04 527.218 375.555 527.804 374.584V368.568H529.276V377ZM532.701 374.968C533.021 374.968 533.288 375.075 533.501 375.288C533.714 375.501 533.821 375.763 533.821 376.072C533.821 376.403 533.725 376.781 533.533 377.208L532.461 379.656H531.405L532.045 377C531.906 376.893 531.794 376.76 531.709 376.6C531.634 376.44 531.597 376.264 531.597 376.072C531.597 375.763 531.704 375.501 531.917 375.288C532.13 375.075 532.392 374.968 532.701 374.968ZM544.331 365.784C544.992 365.784 545.547 365.869 545.995 366.04C546.454 366.211 546.918 366.488 547.387 366.872L546.555 367.848C545.883 367.304 545.174 367.032 544.427 367.032C543.51 367.032 542.768 367.384 542.203 368.088C541.648 368.792 541.371 369.923 541.371 371.48C541.371 372.995 541.648 374.115 542.203 374.84C542.758 375.555 543.494 375.912 544.411 375.912C544.88 375.912 545.291 375.832 545.643 375.672C545.995 375.512 546.368 375.288 546.763 375L547.515 375.96C547.174 376.312 546.736 376.605 546.203 376.84C545.67 377.075 545.056 377.192 544.363 377.192C543.467 377.192 542.667 376.973 541.963 376.536C541.27 376.088 540.726 375.437 540.331 374.584C539.947 373.72 539.755 372.685 539.755 371.48C539.755 370.275 539.958 369.245 540.363 368.392C540.768 367.528 541.318 366.877 542.011 366.44C542.704 366.003 543.478 365.784 544.331 365.784ZM555.3 377L554.468 374.232H550.292L549.46 377H547.924L551.46 365.976H553.38L556.9 377H555.3ZM550.66 373H554.1L552.388 367.24L550.66 373Z" fill="white"/>
<path d="M598.378 130.784C599.039 130.784 599.594 130.869 600.042 131.04C600.501 131.211 600.965 131.488 601.434 131.872L600.602 132.848C599.93 132.304 599.221 132.032 598.474 132.032C597.557 132.032 596.815 132.384 596.25 133.088C595.695 133.792 595.418 134.923 595.418 136.48C595.418 137.995 595.695 139.115 596.25 139.84C596.805 140.555 597.541 140.912 598.458 140.912C598.927 140.912 599.338 140.832 599.69 140.672C600.042 140.512 600.415 140.288 600.81 140L601.562 140.96C601.221 141.312 600.783 141.605 600.25 141.84C599.717 142.075 599.103 142.192 598.41 142.192C597.514 142.192 596.714 141.973 596.01 141.536C595.317 141.088 594.773 140.437 594.378 139.584C593.994 138.72 593.802 137.685 593.802 136.48C593.802 135.275 594.005 134.245 594.41 133.392C594.815 132.528 595.365 131.877 596.058 131.44C596.751 131.003 597.525 130.784 598.378 130.784ZM609.401 142H608.137L608.025 140.688C607.705 141.211 607.337 141.595 606.921 141.84C606.505 142.075 605.999 142.192 605.401 142.192C604.665 142.192 604.089 141.968 603.673 141.52C603.257 141.072 603.049 140.437 603.049 139.616V133.568H604.521V139.456C604.521 140.032 604.623 140.443 604.825 140.688C605.028 140.923 605.359 141.04 605.817 141.04C606.639 141.04 607.343 140.555 607.929 139.584V133.568H609.401V142ZM616.106 133.376C616.405 133.376 616.682 133.408 616.938 133.472L616.666 134.912C616.41 134.848 616.165 134.816 615.93 134.816C615.407 134.816 614.986 135.008 614.666 135.392C614.346 135.776 614.095 136.373 613.914 137.184V142H612.442V133.568H613.706L613.85 135.28C614.074 134.651 614.378 134.176 614.762 133.856C615.146 133.536 615.594 133.376 616.106 133.376ZM622.278 133.376C622.576 133.376 622.854 133.408 623.11 133.472L622.838 134.912C622.582 134.848 622.336 134.816 622.102 134.816C621.579 134.816 621.158 135.008 620.838 135.392C620.518 135.776 620.267 136.373 620.086 137.184V142H618.614V133.568H619.878L620.022 135.28C620.246 134.651 620.55 134.176 620.934 133.856C621.318 133.536 621.766 133.376 622.278 133.376ZM630.669 137.536C630.669 137.781 630.659 138.032 630.637 138.288H625.261C625.325 139.216 625.56 139.899 625.965 140.336C626.371 140.773 626.893 140.992 627.533 140.992C627.939 140.992 628.312 140.933 628.653 140.816C628.995 140.699 629.352 140.512 629.725 140.256L630.365 141.136C629.469 141.84 628.488 142.192 627.421 142.192C626.248 142.192 625.331 141.808 624.669 141.04C624.019 140.272 623.693 139.216 623.693 137.872C623.693 136.997 623.832 136.224 624.109 135.552C624.397 134.869 624.803 134.336 625.325 133.952C625.859 133.568 626.483 133.376 627.197 133.376C628.317 133.376 629.176 133.744 629.773 134.48C630.371 135.216 630.669 136.235 630.669 137.536ZM629.213 137.104C629.213 136.272 629.048 135.637 628.717 135.2C628.387 134.763 627.891 134.544 627.229 134.544C626.024 134.544 625.368 135.429 625.261 137.2H629.213V137.104ZM636.988 133.376C637.756 133.376 638.353 133.605 638.78 134.064C639.217 134.523 639.436 135.152 639.436 135.952V142H637.964V136.16C637.964 135.563 637.852 135.141 637.628 134.896C637.404 134.651 637.073 134.528 636.636 134.528C636.188 134.528 635.793 134.656 635.452 134.912C635.111 135.168 634.791 135.536 634.492 136.016V142H633.02V133.568H634.284L634.412 134.816C634.711 134.368 635.079 134.016 635.516 133.76C635.964 133.504 636.455 133.376 636.988 133.376ZM646.651 141.616C646.096 142 645.467 142.192 644.763 142.192C644.048 142.192 643.488 141.989 643.083 141.584C642.688 141.168 642.491 140.571 642.491 139.792V134.704H641.019V133.568H642.491V131.664L643.963 131.488V133.568H645.963L645.803 134.704H643.963V139.728C643.963 140.165 644.038 140.485 644.187 140.688C644.347 140.88 644.608 140.976 644.971 140.976C645.302 140.976 645.675 140.864 646.091 140.64L646.651 141.616ZM654.011 130.976V140.672H658.539L658.363 142H652.491V130.976H654.011ZM663.141 133.376C664.325 133.376 665.242 133.771 665.893 134.56C666.554 135.349 666.885 136.421 666.885 137.776C666.885 138.651 666.736 139.424 666.437 140.096C666.138 140.757 665.706 141.275 665.141 141.648C664.576 142.011 663.904 142.192 663.125 142.192C661.941 142.192 661.018 141.797 660.357 141.008C659.696 140.219 659.365 139.147 659.365 137.792C659.365 136.917 659.514 136.149 659.813 135.488C660.112 134.816 660.544 134.299 661.109 133.936C661.674 133.563 662.352 133.376 663.141 133.376ZM663.141 134.56C661.68 134.56 660.949 135.637 660.949 137.792C660.949 139.936 661.674 141.008 663.125 141.008C664.576 141.008 665.301 139.931 665.301 137.776C665.301 135.632 664.581 134.56 663.141 134.56ZM672.389 133.376C672.89 133.376 673.349 133.451 673.765 133.6C674.181 133.739 674.581 133.968 674.965 134.288L674.261 135.216C673.962 135.003 673.669 134.848 673.381 134.752C673.104 134.645 672.794 134.592 672.453 134.592C671.77 134.592 671.237 134.864 670.853 135.408C670.48 135.952 670.293 136.757 670.293 137.824C670.293 138.891 670.48 139.68 670.853 140.192C671.226 140.693 671.76 140.944 672.453 140.944C672.784 140.944 673.088 140.896 673.365 140.8C673.642 140.693 673.952 140.528 674.293 140.304L674.965 141.264C674.197 141.883 673.338 142.192 672.389 142.192C671.248 142.192 670.346 141.808 669.685 141.04C669.034 140.272 668.709 139.211 668.709 137.856C668.709 136.96 668.858 136.176 669.157 135.504C669.456 134.832 669.877 134.309 670.421 133.936C670.976 133.563 671.632 133.376 672.389 133.376ZM682.481 140.032C682.481 140.373 682.54 140.629 682.657 140.8C682.775 140.96 682.951 141.083 683.185 141.168L682.849 142.192C682.412 142.139 682.06 142.016 681.793 141.824C681.527 141.632 681.329 141.333 681.201 140.928C680.636 141.771 679.799 142.192 678.689 142.192C677.857 142.192 677.201 141.957 676.721 141.488C676.241 141.019 676.001 140.405 676.001 139.648C676.001 138.752 676.321 138.064 676.961 137.584C677.612 137.104 678.529 136.864 679.713 136.864H681.009V136.24C681.009 135.643 680.865 135.216 680.577 134.96C680.289 134.704 679.847 134.576 679.249 134.576C678.631 134.576 677.873 134.725 676.977 135.024L676.609 133.952C677.655 133.568 678.625 133.376 679.521 133.376C680.513 133.376 681.255 133.621 681.745 134.112C682.236 134.592 682.481 135.28 682.481 136.176V140.032ZM679.025 141.088C679.868 141.088 680.529 140.651 681.009 139.776V137.84H679.905C678.348 137.84 677.569 138.416 677.569 139.568C677.569 140.069 677.692 140.448 677.937 140.704C678.183 140.96 678.545 141.088 679.025 141.088ZM689.76 141.616C689.206 142 688.576 142.192 687.872 142.192C687.158 142.192 686.598 141.989 686.192 141.584C685.798 141.168 685.6 140.571 685.6 139.792V134.704H684.128V133.568H685.6V131.664L687.072 131.488V133.568H689.072L688.912 134.704H687.072V139.728C687.072 140.165 687.147 140.485 687.296 140.688C687.456 140.88 687.718 140.976 688.08 140.976C688.411 140.976 688.784 140.864 689.2 140.64L689.76 141.616ZM692.758 133.568V142H691.286V133.568H692.758ZM692.006 129.52C692.315 129.52 692.566 129.616 692.758 129.808C692.95 130 693.046 130.24 693.046 130.528C693.046 130.816 692.95 131.056 692.758 131.248C692.566 131.429 692.315 131.52 692.006 131.52C691.707 131.52 691.462 131.429 691.27 131.248C691.078 131.056 690.982 130.816 690.982 130.528C690.982 130.24 691.078 130 691.27 129.808C691.462 129.616 691.707 129.52 692.006 129.52ZM698.969 133.376C700.153 133.376 701.071 133.771 701.721 134.56C702.383 135.349 702.713 136.421 702.713 137.776C702.713 138.651 702.564 139.424 702.265 140.096C701.967 140.757 701.535 141.275 700.969 141.648C700.404 142.011 699.732 142.192 698.953 142.192C697.769 142.192 696.847 141.797 696.185 141.008C695.524 140.219 695.193 139.147 695.193 137.792C695.193 136.917 695.343 136.149 695.641 135.488C695.94 134.816 696.372 134.299 696.937 133.936C697.503 133.563 698.18 133.376 698.969 133.376ZM698.969 134.56C697.508 134.56 696.777 135.637 696.777 137.792C696.777 139.936 697.503 141.008 698.953 141.008C700.404 141.008 701.129 139.931 701.129 137.776C701.129 135.632 700.409 134.56 698.969 134.56ZM709.113 133.376C709.881 133.376 710.478 133.605 710.905 134.064C711.342 134.523 711.561 135.152 711.561 135.952V142H710.089V136.16C710.089 135.563 709.977 135.141 709.753 134.896C709.529 134.651 709.198 134.528 708.761 134.528C708.313 134.528 707.918 134.656 707.577 134.912C707.236 135.168 706.916 135.536 706.617 136.016V142H705.145V133.568H706.409L706.537 134.816C706.836 134.368 707.204 134.016 707.641 133.76C708.089 133.504 708.58 133.376 709.113 133.376Z" fill="white"/>
</svg>
